<svg width="116" height="50" viewBox="0 0 116 50" fill="none" xmlns="http://www.w3.org/2000/svg">
<path d="M17.4656 14.3403H23.655V30.8913C23.655 32.8041 23.1998 34.4705 22.2893 35.8904C21.3789 37.3021 20.1093 38.3963 18.4805 39.1731C16.8517 39.9415 14.9598 40.3258 12.8048 40.3258C10.6247 40.3258 8.72028 39.9415 7.09149 39.1731C5.4627 38.3963 4.19726 37.3021 3.29516 35.8904C2.39307 34.4705 1.94202 32.8041 1.94202 30.8913V14.3403H8.14394V30.3526C8.14394 31.238 8.33605 32.0273 8.72028 32.7206C9.11286 33.4138 9.65997 33.9568 10.3616 34.3494C11.0632 34.7419 11.8776 34.9382 12.8048 34.9382C13.7319 34.9382 14.5422 34.7419 15.2354 34.3494C15.9371 33.9568 16.4842 33.4138 16.8767 32.7206C17.2693 32.0273 17.4656 31.238 17.4656 30.3526V14.3403ZM49.3805 14.3403V40H44.1182L33.907 25.1906H33.7441V40H27.5422V14.3403H32.8796L42.9781 29.1247H43.1911V14.3403H49.3805ZM53.2802 40V20.7552H59.4069V40H53.2802ZM56.3498 18.5125C55.4895 18.5125 54.7502 18.2285 54.1321 17.6605C53.514 17.0842 53.205 16.3909 53.205 15.5807C53.205 14.7788 53.514 14.0939 54.1321 13.5259C54.7502 12.9496 55.4895 12.6614 56.3498 12.6614C57.2185 12.6614 57.9577 12.9496 58.5675 13.5259C59.1856 14.0939 59.4946 14.7788 59.4946 15.5807C59.4946 16.3909 59.1856 17.0842 58.5675 17.6605C57.9577 18.2285 57.2185 18.5125 56.3498 18.5125Z" fill="black"/>
<circle cx="91" cy="25" r="25" fill="#D9D9D9"/>
<path d="M101.219 28.8852C103.333 26.7705 104.667 24.9999 104.667 22.3332C104.667 20.8495 104.217 19.4006 103.376 18.1781C102.535 16.9555 101.343 16.0167 99.9579 15.4857C98.5724 14.9547 97.0585 14.8565 95.616 15.2039C94.1735 15.5514 92.8704 16.3282 91.8787 17.4319M101.219 28.8852C100.956 29.1482 100.643 29.3569 100.3 29.4992C99.9562 29.6415 99.5879 29.7148 99.216 29.7148C98.8441 29.7148 98.4758 29.6415 98.1321 29.4992C97.7885 29.3569 97.4763 29.1482 97.2133 28.8852C97.4981 29.1427 97.7275 29.4553 97.8876 29.8042C98.0478 30.1531 98.1354 30.5309 98.145 30.9146C98.1546 31.2984 98.0862 31.6801 97.9437 32.0366C97.8013 32.393 97.5879 32.7168 97.3164 32.9883C97.045 33.2597 96.7212 33.4732 96.3647 33.6156C96.0082 33.758 95.6265 33.8265 95.2428 33.8169C94.859 33.8072 94.4812 33.7197 94.1323 33.5595C93.7835 33.3993 93.4708 33.1699 93.2133 32.8852C93.4765 33.1474 93.6855 33.4589 93.8282 33.8019C93.9709 34.1448 94.0447 34.5126 94.0452 34.8841C94.0457 35.2556 93.9729 35.6235 93.8311 35.9669C93.6893 36.3103 93.4812 36.6223 93.2187 36.8852C92.9653 37.1386 92.6635 37.3384 92.3311 37.4726C91.9988 37.6068 91.6429 37.6726 91.2846 37.6661C90.9263 37.6596 90.573 37.581 90.2457 37.4349C89.9185 37.2888 89.624 37.0783 89.38 36.8159L82 29.6665C80 27.6665 78 25.3999 78 22.3332C78.0003 20.8496 78.4506 19.4009 79.2914 18.1786C80.1322 16.9562 81.324 16.0177 82.7094 15.4868C84.0948 14.956 85.6087 14.8578 87.051 15.2053C88.4934 15.5528 89.7964 16.3297 90.788 17.4332C90.9362 17.571 91.1312 17.6475 91.3336 17.6472C91.536 17.647 91.7308 17.57 91.8787 17.4319M101.219 28.8852C101.719 28.3851 101.999 27.707 101.999 26.9999C101.999 26.2928 101.719 25.6146 101.219 25.1145L98.7107 22.6052C98.4123 22.3067 98.058 22.0698 97.668 21.9083C97.2781 21.7467 96.8601 21.6635 96.438 21.6635C96.0159 21.6635 95.5979 21.7467 95.208 21.9083C94.818 22.0698 94.4637 22.3067 94.1653 22.6052L91.8853 24.8852C91.3853 25.3851 90.7071 25.666 90 25.666C89.2929 25.666 88.6147 25.3851 88.1147 24.8852C87.6147 24.3851 87.3339 23.707 87.3339 22.9999C87.3339 22.2928 87.6147 21.6146 88.1147 21.1145L91.8787 17.4319" stroke="black" stroke-width="4.44444" stroke-linecap="round" stroke-linejoin="round"/>
</svg>
